<mxfile host="app.diagrams.net" modified="2024-04-17T16:24:55.875Z" agent="Mozilla/5.0 (Windows NT 10.0; Win64; x64) AppleWebKit/537.36 (KHTML, like Gecko) Chrome/123.0.0.0 Safari/537.36" etag="y4zbPxS0mJzvfNIXPsue" version="24.2.5" type="device" pages="2">
  <diagram name="Page-1" id="VewkT7-pDkosy5Xe7rMj">
    <mxGraphModel dx="1562" dy="810" grid="1" gridSize="10" guides="1" tooltips="1" connect="1" arrows="1" fold="1" page="1" pageScale="1" pageWidth="850" pageHeight="1100" math="0" shadow="0">
      <root>
        <mxCell id="0" />
        <mxCell id="1" parent="0" />
        <mxCell id="3nZ4SkmMVEwLBrExZ1qy-12" value="" style="rounded=1;whiteSpace=wrap;html=1;fillColor=#d5e8d4;strokeColor=#82b366;" parent="1" vertex="1">
          <mxGeometry x="70" y="70" width="710" height="280" as="geometry" />
        </mxCell>
        <mxCell id="3nZ4SkmMVEwLBrExZ1qy-1" value="" style="rounded=1;whiteSpace=wrap;html=1;fillColor=#e1d5e7;strokeColor=#9673a6;" parent="1" vertex="1">
          <mxGeometry x="480" y="220" width="210" height="100" as="geometry" />
        </mxCell>
        <mxCell id="3nZ4SkmMVEwLBrExZ1qy-3" value="Policy Engine" style="text;html=1;align=center;verticalAlign=middle;whiteSpace=wrap;rounded=0;fontSize=15;" parent="1" vertex="1">
          <mxGeometry x="540" y="235" width="110" height="30" as="geometry" />
        </mxCell>
        <mxCell id="3nZ4SkmMVEwLBrExZ1qy-5" value="" style="shape=image;html=1;verticalLabelPosition=bottom;verticalAlign=top;imageAspect=0;image=img/clipart/Gear_128x128.png" parent="1" vertex="1">
          <mxGeometry x="490" y="230" width="40" height="40" as="geometry" />
        </mxCell>
        <mxCell id="3nZ4SkmMVEwLBrExZ1qy-6" value="" style="group" parent="1" vertex="1" connectable="0">
          <mxGeometry x="527.5" y="270" width="135" height="35" as="geometry" />
        </mxCell>
        <mxCell id="3nZ4SkmMVEwLBrExZ1qy-2" value="" style="rounded=1;whiteSpace=wrap;html=1;" parent="3nZ4SkmMVEwLBrExZ1qy-6" vertex="1">
          <mxGeometry x="7.5" width="120" height="35" as="geometry" />
        </mxCell>
        <mxCell id="3nZ4SkmMVEwLBrExZ1qy-4" value="Policy Configuration" style="text;html=1;align=center;verticalAlign=middle;whiteSpace=wrap;rounded=0;" parent="3nZ4SkmMVEwLBrExZ1qy-6" vertex="1">
          <mxGeometry y="2.5" width="135" height="30" as="geometry" />
        </mxCell>
        <mxCell id="3nZ4SkmMVEwLBrExZ1qy-7" value="Policy Consumer" style="shape=umlActor;verticalLabelPosition=bottom;verticalAlign=top;html=1;outlineConnect=0;" parent="1" vertex="1">
          <mxGeometry x="190" y="230" width="30" height="60" as="geometry" />
        </mxCell>
        <mxCell id="3nZ4SkmMVEwLBrExZ1qy-8" value="" style="shape=flexArrow;endArrow=classic;html=1;rounded=0;" parent="1" edge="1">
          <mxGeometry width="50" height="50" relative="1" as="geometry">
            <mxPoint x="460" y="270" as="sourcePoint" />
            <mxPoint x="240" y="270" as="targetPoint" />
          </mxGeometry>
        </mxCell>
        <mxCell id="3nZ4SkmMVEwLBrExZ1qy-10" value="Policy Details" style="text;html=1;align=center;verticalAlign=middle;whiteSpace=wrap;rounded=0;" parent="1" vertex="1">
          <mxGeometry x="310" y="240" width="100" height="30" as="geometry" />
        </mxCell>
        <mxCell id="3nZ4SkmMVEwLBrExZ1qy-11" value="&lt;div&gt;e.g.&lt;/div&gt;List all valid permit types.&lt;div&gt;List all valid vehicle types.&lt;/div&gt;&lt;div&gt;List all valid commodities.&lt;/div&gt;" style="shape=callout;whiteSpace=wrap;html=1;perimeter=calloutPerimeter;fillColor=#ffe6cc;strokeColor=#d79b00;" parent="1" vertex="1">
          <mxGeometry x="260" y="130" width="180" height="110" as="geometry" />
        </mxCell>
        <mxCell id="3nZ4SkmMVEwLBrExZ1qy-13" value="General Policy Information Requests" style="text;html=1;align=center;verticalAlign=middle;whiteSpace=wrap;rounded=0;fontSize=21;" parent="1" vertex="1">
          <mxGeometry x="130" y="90" width="590" height="30" as="geometry" />
        </mxCell>
        <mxCell id="3nZ4SkmMVEwLBrExZ1qy-14" value="" style="rounded=1;whiteSpace=wrap;html=1;fillColor=#d5e8d4;strokeColor=#82b366;" parent="1" vertex="1">
          <mxGeometry x="70" y="410" width="710" height="280" as="geometry" />
        </mxCell>
        <mxCell id="3nZ4SkmMVEwLBrExZ1qy-15" value="" style="rounded=1;whiteSpace=wrap;html=1;fillColor=#e1d5e7;strokeColor=#9673a6;" parent="1" vertex="1">
          <mxGeometry x="480" y="560" width="210" height="100" as="geometry" />
        </mxCell>
        <mxCell id="3nZ4SkmMVEwLBrExZ1qy-16" value="Policy Engine" style="text;html=1;align=center;verticalAlign=middle;whiteSpace=wrap;rounded=0;fontSize=15;" parent="1" vertex="1">
          <mxGeometry x="540" y="575" width="110" height="30" as="geometry" />
        </mxCell>
        <mxCell id="3nZ4SkmMVEwLBrExZ1qy-17" value="" style="shape=image;html=1;verticalLabelPosition=bottom;verticalAlign=top;imageAspect=0;image=img/clipart/Gear_128x128.png" parent="1" vertex="1">
          <mxGeometry x="490" y="570" width="40" height="40" as="geometry" />
        </mxCell>
        <mxCell id="3nZ4SkmMVEwLBrExZ1qy-18" value="" style="group" parent="1" vertex="1" connectable="0">
          <mxGeometry x="527.5" y="610" width="135" height="35" as="geometry" />
        </mxCell>
        <mxCell id="3nZ4SkmMVEwLBrExZ1qy-19" value="" style="rounded=1;whiteSpace=wrap;html=1;" parent="3nZ4SkmMVEwLBrExZ1qy-18" vertex="1">
          <mxGeometry x="7.5" width="120" height="35" as="geometry" />
        </mxCell>
        <mxCell id="3nZ4SkmMVEwLBrExZ1qy-20" value="Policy Configuration" style="text;html=1;align=center;verticalAlign=middle;whiteSpace=wrap;rounded=0;" parent="3nZ4SkmMVEwLBrExZ1qy-18" vertex="1">
          <mxGeometry y="2.5" width="135" height="30" as="geometry" />
        </mxCell>
        <mxCell id="3nZ4SkmMVEwLBrExZ1qy-21" value="Policy Consumer" style="shape=umlActor;verticalLabelPosition=bottom;verticalAlign=top;html=1;outlineConnect=0;" parent="1" vertex="1">
          <mxGeometry x="190" y="585" width="30" height="60" as="geometry" />
        </mxCell>
        <mxCell id="3nZ4SkmMVEwLBrExZ1qy-22" value="" style="shape=flexArrow;endArrow=classic;html=1;rounded=0;" parent="1" edge="1">
          <mxGeometry width="50" height="50" relative="1" as="geometry">
            <mxPoint x="460" y="633.82" as="sourcePoint" />
            <mxPoint x="240" y="633.82" as="targetPoint" />
          </mxGeometry>
        </mxCell>
        <mxCell id="3nZ4SkmMVEwLBrExZ1qy-23" value="Policy Details" style="text;html=1;align=center;verticalAlign=middle;whiteSpace=wrap;rounded=0;" parent="1" vertex="1">
          <mxGeometry x="310" y="635" width="100" height="30" as="geometry" />
        </mxCell>
        <mxCell id="3nZ4SkmMVEwLBrExZ1qy-24" value="&lt;div&gt;e.g.&lt;/div&gt;What vehicles are valid for permit type &amp;lt;&amp;lt;X&amp;gt;&amp;gt;?&lt;div&gt;What are permittable weights for combination &amp;lt;&amp;lt;X&amp;gt;&amp;gt;?&lt;/div&gt;&lt;div&gt;What commodities are permittable for permit type &amp;lt;&amp;lt;X&amp;gt;&amp;gt;?&lt;/div&gt;" style="shape=callout;whiteSpace=wrap;html=1;perimeter=calloutPerimeter;fillColor=#ffe6cc;strokeColor=#d79b00;" parent="1" vertex="1">
          <mxGeometry x="205" y="470" width="315" height="110" as="geometry" />
        </mxCell>
        <mxCell id="3nZ4SkmMVEwLBrExZ1qy-25" value="Specific Policy Information Requests" style="text;html=1;align=center;verticalAlign=middle;whiteSpace=wrap;rounded=0;fontSize=21;" parent="1" vertex="1">
          <mxGeometry x="130" y="430" width="590" height="30" as="geometry" />
        </mxCell>
        <mxCell id="3nZ4SkmMVEwLBrExZ1qy-26" value="" style="shape=flexArrow;endArrow=classic;html=1;rounded=0;" parent="1" edge="1">
          <mxGeometry width="50" height="50" relative="1" as="geometry">
            <mxPoint x="237.5" y="610" as="sourcePoint" />
            <mxPoint x="462.5" y="610" as="targetPoint" />
          </mxGeometry>
        </mxCell>
        <mxCell id="3nZ4SkmMVEwLBrExZ1qy-27" value="Qualifier" style="text;html=1;align=center;verticalAlign=middle;whiteSpace=wrap;rounded=0;" parent="1" vertex="1">
          <mxGeometry x="310" y="580" width="100" height="30" as="geometry" />
        </mxCell>
        <mxCell id="3nZ4SkmMVEwLBrExZ1qy-28" value="" style="rounded=1;whiteSpace=wrap;html=1;fillColor=#d5e8d4;strokeColor=#82b366;" parent="1" vertex="1">
          <mxGeometry x="70" y="750" width="710" height="280" as="geometry" />
        </mxCell>
        <mxCell id="3nZ4SkmMVEwLBrExZ1qy-29" value="" style="rounded=1;whiteSpace=wrap;html=1;fillColor=#e1d5e7;strokeColor=#9673a6;" parent="1" vertex="1">
          <mxGeometry x="480" y="900" width="210" height="100" as="geometry" />
        </mxCell>
        <mxCell id="3nZ4SkmMVEwLBrExZ1qy-30" value="Policy Engine" style="text;html=1;align=center;verticalAlign=middle;whiteSpace=wrap;rounded=0;fontSize=15;" parent="1" vertex="1">
          <mxGeometry x="540" y="915" width="110" height="30" as="geometry" />
        </mxCell>
        <mxCell id="3nZ4SkmMVEwLBrExZ1qy-31" value="" style="shape=image;html=1;verticalLabelPosition=bottom;verticalAlign=top;imageAspect=0;image=img/clipart/Gear_128x128.png" parent="1" vertex="1">
          <mxGeometry x="490" y="910" width="40" height="40" as="geometry" />
        </mxCell>
        <mxCell id="3nZ4SkmMVEwLBrExZ1qy-32" value="" style="group" parent="1" vertex="1" connectable="0">
          <mxGeometry x="527.5" y="950" width="135" height="35" as="geometry" />
        </mxCell>
        <mxCell id="3nZ4SkmMVEwLBrExZ1qy-33" value="" style="rounded=1;whiteSpace=wrap;html=1;" parent="3nZ4SkmMVEwLBrExZ1qy-32" vertex="1">
          <mxGeometry x="7.5" width="120" height="35" as="geometry" />
        </mxCell>
        <mxCell id="3nZ4SkmMVEwLBrExZ1qy-34" value="Policy Configuration" style="text;html=1;align=center;verticalAlign=middle;whiteSpace=wrap;rounded=0;" parent="3nZ4SkmMVEwLBrExZ1qy-32" vertex="1">
          <mxGeometry y="2.5" width="135" height="30" as="geometry" />
        </mxCell>
        <mxCell id="3nZ4SkmMVEwLBrExZ1qy-35" value="Policy Consumer" style="shape=umlActor;verticalLabelPosition=bottom;verticalAlign=top;html=1;outlineConnect=0;" parent="1" vertex="1">
          <mxGeometry x="190" y="925" width="30" height="60" as="geometry" />
        </mxCell>
        <mxCell id="3nZ4SkmMVEwLBrExZ1qy-36" value="" style="shape=flexArrow;endArrow=classic;html=1;rounded=0;" parent="1" edge="1">
          <mxGeometry width="50" height="50" relative="1" as="geometry">
            <mxPoint x="460" y="973.82" as="sourcePoint" />
            <mxPoint x="240" y="973.82" as="targetPoint" />
          </mxGeometry>
        </mxCell>
        <mxCell id="3nZ4SkmMVEwLBrExZ1qy-37" value="Policy Details" style="text;html=1;align=center;verticalAlign=middle;whiteSpace=wrap;rounded=0;" parent="1" vertex="1">
          <mxGeometry x="310" y="975" width="100" height="30" as="geometry" />
        </mxCell>
        <mxCell id="3nZ4SkmMVEwLBrExZ1qy-38" value="&lt;div&gt;e.g.&lt;/div&gt;Is this permit valid as per policy?&lt;div&gt;What is the cost of this permit?&lt;/div&gt;&lt;div&gt;Does this permit require any others (such as NR)?&lt;/div&gt;" style="shape=callout;whiteSpace=wrap;html=1;perimeter=calloutPerimeter;fillColor=#ffe6cc;strokeColor=#d79b00;" parent="1" vertex="1">
          <mxGeometry x="205" y="810" width="315" height="110" as="geometry" />
        </mxCell>
        <mxCell id="3nZ4SkmMVEwLBrExZ1qy-39" value="Policy Calculations" style="text;html=1;align=center;verticalAlign=middle;whiteSpace=wrap;rounded=0;fontSize=21;" parent="1" vertex="1">
          <mxGeometry x="130" y="770" width="590" height="30" as="geometry" />
        </mxCell>
        <mxCell id="3nZ4SkmMVEwLBrExZ1qy-40" value="" style="shape=flexArrow;endArrow=classic;html=1;rounded=0;" parent="1" edge="1">
          <mxGeometry width="50" height="50" relative="1" as="geometry">
            <mxPoint x="237.5" y="950" as="sourcePoint" />
            <mxPoint x="462.5" y="950" as="targetPoint" />
          </mxGeometry>
        </mxCell>
        <mxCell id="3nZ4SkmMVEwLBrExZ1qy-41" value="Permit Application" style="text;html=1;align=center;verticalAlign=middle;whiteSpace=wrap;rounded=0;" parent="1" vertex="1">
          <mxGeometry x="310" y="920" width="100" height="30" as="geometry" />
        </mxCell>
      </root>
    </mxGraphModel>
  </diagram>
  <diagram id="6Bf2cHlxb-RWwyMib09T" name="Page-2">
    <mxGraphModel dx="1562" dy="810" grid="1" gridSize="10" guides="1" tooltips="1" connect="1" arrows="1" fold="1" page="1" pageScale="1" pageWidth="850" pageHeight="1100" math="0" shadow="0">
      <root>
        <mxCell id="0" />
        <mxCell id="1" parent="0" />
        <mxCell id="owOnmxn3xGGwDT8uI1tm-2" value="onRouteBC&amp;nbsp;&lt;div&gt;Database&lt;/div&gt;" style="shape=cylinder3;whiteSpace=wrap;html=1;boundedLbl=1;backgroundOutline=1;size=15;fillColor=#d5e8d4;strokeColor=#82b366;" parent="1" vertex="1">
          <mxGeometry x="296" y="120" width="120" height="150" as="geometry" />
        </mxCell>
        <mxCell id="owOnmxn3xGGwDT8uI1tm-3" value="" style="rounded=1;whiteSpace=wrap;html=1;fillColor=#fff2cc;strokeColor=#d6b656;" parent="1" vertex="1">
          <mxGeometry x="85" y="320" width="310" height="190" as="geometry" />
        </mxCell>
        <mxCell id="K075il7nE5w_fWgN34j8-28" style="edgeStyle=orthogonalEdgeStyle;rounded=0;orthogonalLoop=1;jettySize=auto;html=1;exitX=0.5;exitY=1;exitDx=0;exitDy=0;entryX=0.5;entryY=1;entryDx=0;entryDy=0;startArrow=classic;startFill=1;" parent="1" source="owOnmxn3xGGwDT8uI1tm-4" target="K075il7nE5w_fWgN34j8-27" edge="1">
          <mxGeometry relative="1" as="geometry" />
        </mxCell>
        <mxCell id="K075il7nE5w_fWgN34j8-29" value="Get Policy Configuration" style="edgeLabel;html=1;align=center;verticalAlign=middle;resizable=0;points=[];" parent="K075il7nE5w_fWgN34j8-28" vertex="1" connectable="0">
          <mxGeometry x="-0.0756" relative="1" as="geometry">
            <mxPoint as="offset" />
          </mxGeometry>
        </mxCell>
        <mxCell id="owOnmxn3xGGwDT8uI1tm-4" value="" style="rounded=1;whiteSpace=wrap;html=1;fillColor=#d5e8d4;strokeColor=#82b366;" parent="1" vertex="1">
          <mxGeometry x="450" y="320" width="310" height="190" as="geometry" />
        </mxCell>
        <mxCell id="K075il7nE5w_fWgN34j8-9" value="" style="group;fillColor=#ffe6cc;strokeColor=#d79b00;container=0;" parent="1" vertex="1" connectable="0">
          <mxGeometry x="520" y="380" width="180" height="60" as="geometry" />
        </mxCell>
        <mxCell id="K075il7nE5w_fWgN34j8-14" value="Policy Service API" style="rounded=1;whiteSpace=wrap;html=1;fillColor=#fff2cc;strokeColor=#d6b656;" parent="1" vertex="1">
          <mxGeometry x="100" y="480" width="280" height="60" as="geometry" />
        </mxCell>
        <mxCell id="K075il7nE5w_fWgN34j8-30" style="edgeStyle=orthogonalEdgeStyle;rounded=0;orthogonalLoop=1;jettySize=auto;html=1;exitX=0.303;exitY=-0.009;exitDx=0;exitDy=0;entryX=0.5;entryY=1;entryDx=0;entryDy=0;exitPerimeter=0;startArrow=classic;startFill=1;" parent="1" source="K075il7nE5w_fWgN34j8-15" target="K075il7nE5w_fWgN34j8-22" edge="1">
          <mxGeometry relative="1" as="geometry" />
        </mxCell>
        <mxCell id="K075il7nE5w_fWgN34j8-31" value="Validate" style="edgeLabel;html=1;align=center;verticalAlign=middle;resizable=0;points=[];" parent="K075il7nE5w_fWgN34j8-30" vertex="1" connectable="0">
          <mxGeometry x="-0.0895" relative="1" as="geometry">
            <mxPoint as="offset" />
          </mxGeometry>
        </mxCell>
        <mxCell id="K075il7nE5w_fWgN34j8-32" style="edgeStyle=orthogonalEdgeStyle;rounded=0;orthogonalLoop=1;jettySize=auto;html=1;exitX=0.5;exitY=0;exitDx=0;exitDy=0;entryX=0.5;entryY=1;entryDx=0;entryDy=0;startArrow=classic;startFill=1;" parent="1" source="K075il7nE5w_fWgN34j8-15" target="K075il7nE5w_fWgN34j8-24" edge="1">
          <mxGeometry relative="1" as="geometry" />
        </mxCell>
        <mxCell id="K075il7nE5w_fWgN34j8-33" value="Cost" style="edgeLabel;html=1;align=center;verticalAlign=middle;resizable=0;points=[];" parent="K075il7nE5w_fWgN34j8-32" vertex="1" connectable="0">
          <mxGeometry x="-0.0844" relative="1" as="geometry">
            <mxPoint as="offset" />
          </mxGeometry>
        </mxCell>
        <mxCell id="K075il7nE5w_fWgN34j8-15" value="" style="rounded=1;whiteSpace=wrap;html=1;fillColor=#d5e8d4;strokeColor=#82b366;" parent="1" vertex="1">
          <mxGeometry x="88" y="640" width="310" height="90" as="geometry" />
        </mxCell>
        <mxCell id="K075il7nE5w_fWgN34j8-16" value="Policy Service" style="text;html=1;align=center;verticalAlign=middle;whiteSpace=wrap;rounded=0;fontSize=17;" parent="1" vertex="1">
          <mxGeometry x="100" y="340" width="150" height="30" as="geometry" />
        </mxCell>
        <mxCell id="K075il7nE5w_fWgN34j8-17" value="onRouteBC Client (Frontend)" style="text;html=1;align=center;verticalAlign=middle;whiteSpace=wrap;rounded=0;fontSize=17;" parent="1" vertex="1">
          <mxGeometry x="470" y="340" width="240" height="30" as="geometry" />
        </mxCell>
        <mxCell id="K075il7nE5w_fWgN34j8-18" value="onRouteBC Server (Backend)" style="text;html=1;align=center;verticalAlign=middle;whiteSpace=wrap;rounded=0;fontSize=17;" parent="1" vertex="1">
          <mxGeometry x="110" y="670" width="250" height="30" as="geometry" />
        </mxCell>
        <mxCell id="K075il7nE5w_fWgN34j8-21" value="" style="rounded=0;whiteSpace=wrap;html=1;" parent="1" vertex="1">
          <mxGeometry x="118" y="530" width="20" height="20" as="geometry" />
        </mxCell>
        <mxCell id="K075il7nE5w_fWgN34j8-22" value="" style="rounded=0;whiteSpace=wrap;html=1;" parent="1" vertex="1">
          <mxGeometry x="172" y="530" width="20" height="20" as="geometry" />
        </mxCell>
        <mxCell id="K075il7nE5w_fWgN34j8-24" value="" style="rounded=0;whiteSpace=wrap;html=1;" parent="1" vertex="1">
          <mxGeometry x="233" y="530" width="20" height="20" as="geometry" />
        </mxCell>
        <mxCell id="K075il7nE5w_fWgN34j8-25" value="" style="rounded=0;whiteSpace=wrap;html=1;" parent="1" vertex="1">
          <mxGeometry x="287" y="530" width="20" height="20" as="geometry" />
        </mxCell>
        <mxCell id="K075il7nE5w_fWgN34j8-27" value="" style="rounded=0;whiteSpace=wrap;html=1;" parent="1" vertex="1">
          <mxGeometry x="340" y="530" width="20" height="20" as="geometry" />
        </mxCell>
        <mxCell id="K075il7nE5w_fWgN34j8-34" style="edgeStyle=orthogonalEdgeStyle;rounded=0;orthogonalLoop=1;jettySize=auto;html=1;exitX=0.25;exitY=0;exitDx=0;exitDy=0;entryX=0.079;entryY=1.007;entryDx=0;entryDy=0;entryPerimeter=0;startArrow=classic;startFill=1;" parent="1" source="K075il7nE5w_fWgN34j8-14" target="K075il7nE5w_fWgN34j8-1" edge="1">
          <mxGeometry relative="1" as="geometry" />
        </mxCell>
        <mxCell id="K075il7nE5w_fWgN34j8-37" value="Validate" style="edgeLabel;html=1;align=center;verticalAlign=middle;resizable=0;points=[];" parent="K075il7nE5w_fWgN34j8-34" vertex="1" connectable="0">
          <mxGeometry x="-0.2612" y="-2" relative="1" as="geometry">
            <mxPoint as="offset" />
          </mxGeometry>
        </mxCell>
        <mxCell id="K075il7nE5w_fWgN34j8-35" style="edgeStyle=orthogonalEdgeStyle;rounded=0;orthogonalLoop=1;jettySize=auto;html=1;exitX=0.5;exitY=0;exitDx=0;exitDy=0;startArrow=classic;startFill=1;" parent="1" source="K075il7nE5w_fWgN34j8-14" edge="1">
          <mxGeometry relative="1" as="geometry">
            <mxPoint x="240" y="440" as="targetPoint" />
          </mxGeometry>
        </mxCell>
        <mxCell id="K075il7nE5w_fWgN34j8-38" value="Cost" style="edgeLabel;html=1;align=center;verticalAlign=middle;resizable=0;points=[];" parent="K075il7nE5w_fWgN34j8-35" vertex="1" connectable="0">
          <mxGeometry x="-0.1935" y="-1" relative="1" as="geometry">
            <mxPoint as="offset" />
          </mxGeometry>
        </mxCell>
        <mxCell id="K075il7nE5w_fWgN34j8-36" style="edgeStyle=orthogonalEdgeStyle;rounded=0;orthogonalLoop=1;jettySize=auto;html=1;exitX=0.916;exitY=0.001;exitDx=0;exitDy=0;entryX=0.5;entryY=1;entryDx=0;entryDy=0;entryPerimeter=0;exitPerimeter=0;startArrow=classic;startFill=1;" parent="1" source="K075il7nE5w_fWgN34j8-14" target="owOnmxn3xGGwDT8uI1tm-2" edge="1">
          <mxGeometry relative="1" as="geometry" />
        </mxCell>
        <mxCell id="K075il7nE5w_fWgN34j8-40" value="Get Policy Config" style="edgeLabel;html=1;align=center;verticalAlign=middle;resizable=0;points=[];" parent="K075il7nE5w_fWgN34j8-36" vertex="1" connectable="0">
          <mxGeometry x="0.1111" y="-2" relative="1" as="geometry">
            <mxPoint as="offset" />
          </mxGeometry>
        </mxCell>
        <mxCell id="K075il7nE5w_fWgN34j8-41" value="/validate" style="text;html=1;align=center;verticalAlign=middle;whiteSpace=wrap;rounded=0;fontSize=7;" parent="1" vertex="1">
          <mxGeometry x="166" y="520" width="32" height="10" as="geometry" />
        </mxCell>
        <mxCell id="K075il7nE5w_fWgN34j8-42" value="/cost" style="text;html=1;align=center;verticalAlign=middle;whiteSpace=wrap;rounded=0;fontSize=7;" parent="1" vertex="1">
          <mxGeometry x="227" y="520" width="32" height="10" as="geometry" />
        </mxCell>
        <mxCell id="K075il7nE5w_fWgN34j8-43" value="/config" style="text;html=1;align=center;verticalAlign=middle;whiteSpace=wrap;rounded=0;fontSize=7;" parent="1" vertex="1">
          <mxGeometry x="334" y="520" width="32" height="10" as="geometry" />
        </mxCell>
        <mxCell id="K075il7nE5w_fWgN34j8-10" value="" style="rounded=1;whiteSpace=wrap;html=1;container=0;fillColor=#ffe6cc;strokeColor=#d79b00;" parent="1" vertex="1">
          <mxGeometry x="520" y="380" width="180" height="60" as="geometry" />
        </mxCell>
        <mxCell id="K075il7nE5w_fWgN34j8-11" value="Policy Engine" style="text;html=1;align=center;verticalAlign=middle;whiteSpace=wrap;rounded=0;fontSize=15;container=0;" parent="1" vertex="1">
          <mxGeometry x="580" y="395" width="110" height="30" as="geometry" />
        </mxCell>
        <mxCell id="K075il7nE5w_fWgN34j8-12" value="" style="shape=image;html=1;verticalLabelPosition=bottom;verticalAlign=top;imageAspect=0;image=img/clipart/Gear_128x128.png;container=0;" parent="1" vertex="1">
          <mxGeometry x="530" y="390" width="40" height="40" as="geometry" />
        </mxCell>
        <mxCell id="K075il7nE5w_fWgN34j8-1" value="" style="rounded=1;whiteSpace=wrap;html=1;container=0;fillColor=#ffe6cc;strokeColor=#d79b00;" parent="1" vertex="1">
          <mxGeometry x="155" y="380" width="180" height="60" as="geometry" />
        </mxCell>
        <mxCell id="K075il7nE5w_fWgN34j8-2" value="Policy Engine" style="text;html=1;align=center;verticalAlign=middle;whiteSpace=wrap;rounded=0;fontSize=15;container=0;" parent="1" vertex="1">
          <mxGeometry x="215" y="395" width="110" height="30" as="geometry" />
        </mxCell>
        <mxCell id="K075il7nE5w_fWgN34j8-3" value="" style="shape=image;html=1;verticalLabelPosition=bottom;verticalAlign=top;imageAspect=0;image=img/clipart/Gear_128x128.png;container=0;" parent="1" vertex="1">
          <mxGeometry x="165" y="390" width="40" height="40" as="geometry" />
        </mxCell>
      </root>
    </mxGraphModel>
  </diagram>
</mxfile>
